<?xml version="1.0" standalone="no"?>
<!DOCTYPE svg PUBLIC "-//W3C//DTD SVG 20010904//EN"
 "http://www.w3.org/TR/2001/REC-SVG-20010904/DTD/svg10.dtd">
<svg version="1.0" xmlns="http://www.w3.org/2000/svg"
 width="1062.000000pt" height="519.000000pt" viewBox="0 0 1062.000000 519.000000"
 preserveAspectRatio="xMidYMid meet">

<g transform="translate(0.000000,519.000000) scale(0.100000,-0.100000)"
fill="#000000" stroke="none">
<path d="M4830 3904 c-787 -45 -1367 -147 -1940 -341 -502 -170 -904 -436
-1047 -693 -62 -112 -76 -165 -77 -285 0 -122 16 -183 81 -299 114 -202 356
-392 703 -551 205 -95 252 -113 465 -180 464 -146 968 -236 1610 -287 246 -20
1007 -16 1270 5 468 39 828 95 1215 188 179 43 513 149 645 204 439 185 737
401 862 625 62 112 76 165 77 285 0 122 -16 183 -81 299 -113 200 -362 396
-703 552 -198 90 -261 115 -467 180 -457 144 -960 234 -1583 285 -132 10 -902
20 -1030 13z m-2100 -1210 c38 -8 58 -41 41 -72 -7 -14 -8 -23 -1 -27 15 -9
12 -51 -3 -64 -21 -17 -72 -24 -122 -17 l-45 7 0 84 c0 79 1 84 23 88 37 7 73
7 107 1z m1518 0 c13 -4 22 -14 22 -25 0 -16 -8 -19 -55 -19 -49 0 -55 -2 -61
-24 -3 -14 -3 -34 1 -45 5 -18 14 -21 61 -21 46 0 54 -3 54 -19 0 -20 -25 -31
-72 -31 -90 0 -132 98 -69 161 30 29 67 37 119 23z m466 -4 c33 -12 44 -55 23
-91 -13 -24 -13 -30 -1 -46 19 -26 17 -33 -11 -33 -17 0 -29 8 -37 25 -8 18
-19 25 -40 25 -23 0 -28 -4 -28 -25 0 -18 -5 -25 -19 -25 -24 0 -28 17 -25 90
3 80 2 78 22 83 32 8 90 7 116 -3z m1020 -13 c22 -15 26 -25 26 -66 0 -64 -21
-89 -82 -97 -26 -4 -58 -4 -72 0 -25 6 -26 9 -26 90 0 58 4 86 13 90 24 11
115 -1 141 -17z m325 17 c21 -5 31 -12 31 -25 0 -16 -8 -19 -55 -19 -66 0 -73
-15 -10 -22 55 -7 75 -22 75 -58 0 -47 -47 -67 -125 -56 -36 6 -45 11 -45 27
0 17 7 19 60 19 33 0 60 4 60 10 0 6 -8 10 -17 10 -44 0 -91 21 -97 42 -7 29
17 65 46 71 38 7 44 7 77 1z m485 -13 c19 -16 21 -72 4 -89 -9 -9 -9 -18 0
-37 16 -34 16 -35 -11 -35 -15 0 -29 9 -37 25 -9 18 -22 25 -42 25 -23 0 -28
-4 -28 -25 0 -18 -5 -25 -20 -25 -18 0 -20 7 -20 84 0 72 3 85 18 90 30 9 120
0 136 -13z m336 6 c28 -14 38 -51 20 -73 -8 -8 -8 -14 -2 -14 14 0 24 -29 17
-51 -10 -31 -93 -49 -152 -33 -22 6 -23 12 -23 89 0 93 -1 92 75 94 22 0 51
-5 65 -12z m855 -18 c29 -29 28 -101 -3 -131 -29 -29 -105 -32 -145 -5 -23 15
-27 25 -27 61 0 60 8 76 44 92 40 18 104 10 131 -17z m-4725 1 c0 -18 -7 -20
-60 -20 -33 0 -60 -4 -60 -10 0 -5 20 -10 45 -10 41 0 45 -2 45 -25 0 -23 -4
-25 -45 -25 -25 0 -45 -4 -45 -10 0 -6 27 -10 60 -10 53 0 60 -2 60 -20 0 -18
-7 -20 -85 -20 l-86 0 2 85 2 85 83 0 c77 0 84 -2 84 -20z m211 -57 c19 -42
36 -80 37 -85 2 -4 -7 -8 -21 -8 -14 0 -27 7 -31 15 -3 10 -19 15 -46 15 -27
0 -43 -5 -46 -15 -4 -8 -17 -15 -31 -15 -16 0 -23 5 -20 13 2 6 19 45 37 85
29 63 36 72 60 72 23 0 30 -9 61 -77z m141 15 l3 -63 35 0 35 0 3 63 c3 58 4
62 27 62 24 0 25 -2 25 -68 0 -86 -18 -107 -90 -107 -72 0 -90 21 -90 107 0
66 1 68 25 68 23 0 24 -4 27 -62z m368 42 c0 -16 -7 -20 -35 -20 l-35 0 0 -65
c0 -63 -1 -65 -25 -65 -24 0 -25 2 -25 65 l0 65 -30 0 c-23 0 -30 4 -30 20 0
19 7 20 90 20 83 0 90 -1 90 -20z m114 -12 l19 -31 18 21 c9 12 19 27 21 33 2
6 16 9 31 7 l27 -3 -35 -52 c-21 -31 -35 -64 -35 -83 0 -25 -4 -30 -25 -30
-22 0 -25 5 -25 33 0 19 -12 50 -30 77 -36 54 -37 60 -7 60 15 0 29 -11 41
-32z m640 -48 c20 -43 36 -82 36 -85 0 -12 -48 -4 -54 10 -3 10 -19 15 -46 15
-27 0 -43 -5 -46 -15 -4 -8 -17 -15 -31 -15 -14 0 -23 4 -21 8 2 5 19 43 38
85 31 67 38 77 61 77 23 0 31 -10 63 -80z m496 60 c0 -16 -7 -20 -30 -20 l-30
0 0 -65 c0 -63 -1 -65 -25 -65 -24 0 -25 2 -25 65 l0 65 -35 0 c-28 0 -35 4
-35 20 0 19 7 20 90 20 83 0 90 -1 90 -20z m220 0 c0 -18 -7 -20 -60 -20 -33
0 -60 -4 -60 -10 0 -5 20 -10 45 -10 41 0 45 -2 45 -25 0 -23 -4 -25 -45 -25
-25 0 -45 -4 -45 -10 0 -6 27 -10 60 -10 53 0 60 -2 60 -20 0 -18 -7 -20 -80
-20 l-80 0 0 85 0 85 80 0 c73 0 80 -2 80 -20z m110 -45 l0 -65 55 0 c48 0 55
-2 55 -20 0 -18 -7 -20 -80 -20 l-80 0 0 85 c0 84 0 85 25 85 24 0 25 -2 25
-65z m560 -20 c0 -84 0 -85 -25 -85 -25 0 -25 1 -25 85 0 84 0 85 25 85 25 0
25 -1 25 -85z m460 65 c0 -16 -7 -20 -30 -20 l-30 0 0 -65 c0 -63 -1 -65 -25
-65 -24 0 -25 2 -25 65 l0 65 -35 0 c-28 0 -35 4 -35 20 0 19 7 20 90 20 83 0
90 -1 90 -20z m340 -65 c0 -83 -1 -85 -24 -85 -24 0 -24 1 -23 85 2 81 3 85
24 85 22 0 23 -3 23 -85z m354 38 c-4 -63 9 -85 49 -81 32 3 32 3 35 66 3 58
4 62 27 62 24 0 25 -2 25 -68 0 -86 -16 -105 -89 -106 -72 -1 -89 18 -93 105
-3 68 -3 69 23 69 24 0 25 -2 23 -47z m366 27 c0 -16 -7 -20 -30 -20 l-30 0 0
-65 c0 -63 -1 -65 -25 -65 -24 0 -25 2 -25 65 l0 65 -35 0 c-28 0 -35 4 -35
20 0 19 7 20 90 20 83 0 90 -1 90 -20z m110 -65 c0 -84 0 -85 -25 -85 -25 0
-25 1 -25 85 0 84 0 85 25 85 25 0 25 -1 25 -85z m409 34 l41 -52 0 52 c0 48
2 51 25 51 25 0 25 -1 25 -85 0 -83 -1 -85 -24 -85 -16 0 -37 15 -65 48 l-40
47 -1 -47 c0 -44 -2 -48 -25 -48 -25 0 -25 1 -25 85 0 83 1 85 24 85 17 0 36
-15 65 -51z"/>
<path d="M2650 2640 c0 -5 18 -10 40 -10 22 0 40 5 40 10 0 6 -18 10 -40 10
-22 0 -40 -4 -40 -10z"/>
<path d="M2650 2570 c0 -5 20 -10 45 -10 25 0 45 5 45 10 0 6 -20 10 -45 10
-25 0 -45 -4 -45 -10z"/>
<path d="M4620 2635 c0 -11 11 -15 40 -15 29 0 40 4 40 15 0 11 -11 15 -40 15
-29 0 -40 -4 -40 -15z"/>
<path d="M5630 2605 l0 -46 38 3 c36 3 37 4 37 43 0 39 -1 40 -37 43 l-38 3 0
-46z"/>
<path d="M6430 2635 c0 -11 11 -15 40 -15 29 0 40 4 40 15 0 11 -11 15 -40 15
-29 0 -40 -4 -40 -15z"/>
<path d="M6790 2640 c0 -5 18 -10 40 -10 22 0 40 5 40 10 0 6 -18 10 -40 10
-22 0 -40 -4 -40 -10z"/>
<path d="M6790 2570 c0 -5 18 -10 40 -10 22 0 40 5 40 10 0 6 -18 10 -40 10
-22 0 -40 -4 -40 -10z"/>
<path d="M7614 2636 c-3 -8 -4 -27 -2 -43 3 -24 8 -28 36 -31 18 -2 40 2 48 9
17 14 18 51 2 67 -17 17 -77 15 -84 -2z"/>
<path d="M3146 2614 c-9 -23 -8 -24 14 -24 11 0 20 2 20 4 0 12 -13 36 -20 36
-4 0 -11 -7 -14 -16z"/>
<path d="M4406 2614 c-9 -23 -8 -24 14 -24 11 0 20 2 20 4 0 12 -13 36 -20 36
-4 0 -11 -7 -14 -16z"/>
</g>
</svg>
